<mxfile host="app.diagrams.net" modified="2023-06-19T04:01:22.456Z" agent="Mozilla/5.0 (Windows NT 10.0; Win64; x64) AppleWebKit/537.36 (KHTML, like Gecko) Chrome/114.0.0.0 Safari/537.36" etag="mU2_IPpMDKFibdmUPJNe" version="21.4.0" type="github">
  <diagram name="Page-1" id="5d7acffa-a066-3a61-03fe-96351882024d">
    <mxGraphModel dx="875" dy="573" grid="1" gridSize="10" guides="1" tooltips="1" connect="1" arrows="1" fold="1" page="1" pageScale="1" pageWidth="1100" pageHeight="850" background="#ffffff" math="0" shadow="0">
      <root>
        <mxCell id="0" />
        <mxCell id="1" parent="0" />
        <mxCell id="2debaab0fafb2da2-10" value="Object" style="html=1;rounded=0;shadow=0;comic=0;labelBackgroundColor=none;strokeWidth=2;fontFamily=Verdana;fontSize=12;align=center;shape=mxgraph.ios7ui.horLines;" parent="1" vertex="1">
          <mxGeometry x="172.5" y="440" width="135" height="50" as="geometry" />
        </mxCell>
        <mxCell id="21ea969265ad0168-6" value="Function" style="swimlane;html=1;fontStyle=0;childLayout=stackLayout;horizontal=1;startSize=26;fillColor=#e0e0e0;horizontalStack=0;resizeParent=1;resizeLast=0;collapsible=1;marginBottom=0;swimlaneFillColor=#ffffff;align=center;rounded=1;shadow=0;comic=0;labelBackgroundColor=none;strokeWidth=1;fontFamily=Verdana;fontSize=12" parent="1" vertex="1">
          <mxGeometry x="160" y="74" width="160" height="110" as="geometry" />
        </mxCell>
        <mxCell id="21ea969265ad0168-7" value="Row 1" style="text;html=1;strokeColor=none;fillColor=none;spacingLeft=4;spacingRight=4;whiteSpace=wrap;overflow=hidden;rotatable=0;points=[[0,0.5],[1,0.5]];portConstraint=eastwest;" parent="21ea969265ad0168-6" vertex="1">
          <mxGeometry y="26" width="160" height="26" as="geometry" />
        </mxCell>
        <mxCell id="21ea969265ad0168-8" value="Row 2" style="text;html=1;strokeColor=none;fillColor=none;spacingLeft=4;spacingRight=4;whiteSpace=wrap;overflow=hidden;rotatable=0;points=[[0,0.5],[1,0.5]];portConstraint=eastwest;" parent="21ea969265ad0168-6" vertex="1">
          <mxGeometry y="52" width="160" height="26" as="geometry" />
        </mxCell>
        <mxCell id="21ea969265ad0168-9" value="Row 3" style="text;html=1;strokeColor=none;fillColor=none;spacingLeft=4;spacingRight=4;whiteSpace=wrap;overflow=hidden;rotatable=0;points=[[0,0.5],[1,0.5]];portConstraint=eastwest;" parent="21ea969265ad0168-6" vertex="1">
          <mxGeometry y="78" width="160" height="26" as="geometry" />
        </mxCell>
        <mxCell id="21ea969265ad0168-10" value="Function" style="swimlane;html=1;fontStyle=0;childLayout=stackLayout;horizontal=1;startSize=26;fillColor=#e0e0e0;horizontalStack=0;resizeParent=1;resizeLast=0;collapsible=1;marginBottom=0;swimlaneFillColor=#ffffff;align=center;rounded=1;shadow=0;comic=0;labelBackgroundColor=none;strokeWidth=1;fontFamily=Verdana;fontSize=12" parent="1" vertex="1">
          <mxGeometry x="560" y="74" width="160" height="130" as="geometry" />
        </mxCell>
        <mxCell id="21ea969265ad0168-11" value="Row 1" style="text;html=1;strokeColor=none;fillColor=none;spacingLeft=4;spacingRight=4;whiteSpace=wrap;overflow=hidden;rotatable=0;points=[[0,0.5],[1,0.5]];portConstraint=eastwest;" parent="21ea969265ad0168-10" vertex="1">
          <mxGeometry y="26" width="160" height="26" as="geometry" />
        </mxCell>
        <mxCell id="21ea969265ad0168-12" value="Row 2" style="text;html=1;strokeColor=none;fillColor=none;spacingLeft=4;spacingRight=4;whiteSpace=wrap;overflow=hidden;rotatable=0;points=[[0,0.5],[1,0.5]];portConstraint=eastwest;" parent="21ea969265ad0168-10" vertex="1">
          <mxGeometry y="52" width="160" height="26" as="geometry" />
        </mxCell>
        <mxCell id="21ea969265ad0168-52" value="Row 3" style="text;html=1;strokeColor=none;fillColor=none;spacingLeft=4;spacingRight=4;whiteSpace=wrap;overflow=hidden;rotatable=0;points=[[0,0.5],[1,0.5]];portConstraint=eastwest;" parent="21ea969265ad0168-10" vertex="1">
          <mxGeometry y="78" width="160" height="26" as="geometry" />
        </mxCell>
        <mxCell id="21ea969265ad0168-13" value="Row 4" style="text;html=1;strokeColor=none;fillColor=none;spacingLeft=4;spacingRight=4;whiteSpace=wrap;overflow=hidden;rotatable=0;points=[[0,0.5],[1,0.5]];portConstraint=eastwest;" parent="21ea969265ad0168-10" vertex="1">
          <mxGeometry y="104" width="160" height="26" as="geometry" />
        </mxCell>
        <mxCell id="21ea969265ad0168-14" value="Function" style="swimlane;html=1;fontStyle=0;childLayout=stackLayout;horizontal=1;startSize=26;fillColor=#e0e0e0;horizontalStack=0;resizeParent=1;resizeLast=0;collapsible=1;marginBottom=0;swimlaneFillColor=#ffffff;align=center;rounded=1;shadow=0;comic=0;labelBackgroundColor=none;strokeWidth=1;fontFamily=Verdana;fontSize=12" parent="1" vertex="1">
          <mxGeometry x="160" y="266" width="160" height="110" as="geometry" />
        </mxCell>
        <mxCell id="21ea969265ad0168-15" value="Row 1" style="text;html=1;strokeColor=none;fillColor=none;spacingLeft=4;spacingRight=4;whiteSpace=wrap;overflow=hidden;rotatable=0;points=[[0,0.5],[1,0.5]];portConstraint=eastwest;" parent="21ea969265ad0168-14" vertex="1">
          <mxGeometry y="26" width="160" height="26" as="geometry" />
        </mxCell>
        <mxCell id="21ea969265ad0168-16" value="Row 2" style="text;html=1;strokeColor=none;fillColor=none;spacingLeft=4;spacingRight=4;whiteSpace=wrap;overflow=hidden;rotatable=0;points=[[0,0.5],[1,0.5]];portConstraint=eastwest;" parent="21ea969265ad0168-14" vertex="1">
          <mxGeometry y="52" width="160" height="26" as="geometry" />
        </mxCell>
        <mxCell id="21ea969265ad0168-17" value="Row 3" style="text;html=1;strokeColor=none;fillColor=none;spacingLeft=4;spacingRight=4;whiteSpace=wrap;overflow=hidden;rotatable=0;points=[[0,0.5],[1,0.5]];portConstraint=eastwest;" parent="21ea969265ad0168-14" vertex="1">
          <mxGeometry y="78" width="160" height="26" as="geometry" />
        </mxCell>
        <mxCell id="21ea969265ad0168-18" value="Function" style="swimlane;html=1;fontStyle=0;childLayout=stackLayout;horizontal=1;startSize=26;fillColor=#e0e0e0;horizontalStack=0;resizeParent=1;resizeLast=0;collapsible=1;marginBottom=0;swimlaneFillColor=#ffffff;align=center;rounded=1;shadow=0;comic=0;labelBackgroundColor=none;strokeWidth=1;fontFamily=Verdana;fontSize=12" parent="1" vertex="1">
          <mxGeometry x="160" y="570" width="160" height="140" as="geometry" />
        </mxCell>
        <mxCell id="21ea969265ad0168-19" value="Row 1" style="text;html=1;strokeColor=none;fillColor=none;spacingLeft=4;spacingRight=4;whiteSpace=wrap;overflow=hidden;rotatable=0;points=[[0,0.5],[1,0.5]];portConstraint=eastwest;" parent="21ea969265ad0168-18" vertex="1">
          <mxGeometry y="26" width="160" height="26" as="geometry" />
        </mxCell>
        <mxCell id="21ea969265ad0168-20" value="Row 2" style="text;html=1;strokeColor=none;fillColor=none;spacingLeft=4;spacingRight=4;whiteSpace=wrap;overflow=hidden;rotatable=0;points=[[0,0.5],[1,0.5]];portConstraint=eastwest;" parent="21ea969265ad0168-18" vertex="1">
          <mxGeometry y="52" width="160" height="26" as="geometry" />
        </mxCell>
        <mxCell id="21ea969265ad0168-51" value="Row 3" style="text;html=1;strokeColor=none;fillColor=none;spacingLeft=4;spacingRight=4;whiteSpace=wrap;overflow=hidden;rotatable=0;points=[[0,0.5],[1,0.5]];portConstraint=eastwest;" parent="21ea969265ad0168-18" vertex="1">
          <mxGeometry y="78" width="160" height="26" as="geometry" />
        </mxCell>
        <mxCell id="21ea969265ad0168-21" value="Row 4" style="text;html=1;strokeColor=none;fillColor=none;spacingLeft=4;spacingRight=4;whiteSpace=wrap;overflow=hidden;rotatable=0;points=[[0,0.5],[1,0.5]];portConstraint=eastwest;" parent="21ea969265ad0168-18" vertex="1">
          <mxGeometry y="104" width="160" height="26" as="geometry" />
        </mxCell>
        <mxCell id="21ea969265ad0168-22" value="Function" style="swimlane;html=1;fontStyle=0;childLayout=stackLayout;horizontal=1;startSize=26;fillColor=#e0e0e0;horizontalStack=0;resizeParent=1;resizeLast=0;collapsible=1;marginBottom=0;swimlaneFillColor=#ffffff;align=center;rounded=1;shadow=0;comic=0;labelBackgroundColor=none;strokeWidth=1;fontFamily=Verdana;fontSize=12" parent="1" vertex="1">
          <mxGeometry x="560" y="266" width="160" height="84" as="geometry" />
        </mxCell>
        <mxCell id="21ea969265ad0168-23" value="Row 1" style="text;html=1;strokeColor=none;fillColor=none;spacingLeft=4;spacingRight=4;whiteSpace=wrap;overflow=hidden;rotatable=0;points=[[0,0.5],[1,0.5]];portConstraint=eastwest;" parent="21ea969265ad0168-22" vertex="1">
          <mxGeometry y="26" width="160" height="26" as="geometry" />
        </mxCell>
        <mxCell id="21ea969265ad0168-24" value="Row 2" style="text;html=1;strokeColor=none;fillColor=none;spacingLeft=4;spacingRight=4;whiteSpace=wrap;overflow=hidden;rotatable=0;points=[[0,0.5],[1,0.5]];portConstraint=eastwest;" parent="21ea969265ad0168-22" vertex="1">
          <mxGeometry y="52" width="160" height="26" as="geometry" />
        </mxCell>
        <mxCell id="21ea969265ad0168-26" value="Function" style="swimlane;html=1;fontStyle=0;childLayout=stackLayout;horizontal=1;startSize=26;fillColor=#e0e0e0;horizontalStack=0;resizeParent=1;resizeLast=0;collapsible=1;marginBottom=0;swimlaneFillColor=#ffffff;align=center;rounded=1;shadow=0;comic=0;labelBackgroundColor=none;strokeWidth=1;fontFamily=Verdana;fontSize=12" parent="1" vertex="1">
          <mxGeometry x="560" y="570" width="160" height="110" as="geometry" />
        </mxCell>
        <mxCell id="21ea969265ad0168-27" value="Row 1" style="text;html=1;strokeColor=none;fillColor=none;spacingLeft=4;spacingRight=4;whiteSpace=wrap;overflow=hidden;rotatable=0;points=[[0,0.5],[1,0.5]];portConstraint=eastwest;" parent="21ea969265ad0168-26" vertex="1">
          <mxGeometry y="26" width="160" height="26" as="geometry" />
        </mxCell>
        <mxCell id="21ea969265ad0168-28" value="Row 2" style="text;html=1;strokeColor=none;fillColor=none;spacingLeft=4;spacingRight=4;whiteSpace=wrap;overflow=hidden;rotatable=0;points=[[0,0.5],[1,0.5]];portConstraint=eastwest;" parent="21ea969265ad0168-26" vertex="1">
          <mxGeometry y="52" width="160" height="26" as="geometry" />
        </mxCell>
        <mxCell id="21ea969265ad0168-29" value="Row 3" style="text;html=1;strokeColor=none;fillColor=none;spacingLeft=4;spacingRight=4;whiteSpace=wrap;overflow=hidden;rotatable=0;points=[[0,0.5],[1,0.5]];portConstraint=eastwest;" parent="21ea969265ad0168-26" vertex="1">
          <mxGeometry y="78" width="160" height="26" as="geometry" />
        </mxCell>
        <mxCell id="21ea969265ad0168-30" value="Object" style="html=1;rounded=0;shadow=0;comic=0;labelBackgroundColor=none;strokeWidth=2;fontFamily=Verdana;fontSize=12;align=center;shape=mxgraph.ios7ui.horLines;" parent="1" vertex="1">
          <mxGeometry x="380" y="440" width="135" height="50" as="geometry" />
        </mxCell>
        <mxCell id="21ea969265ad0168-31" style="edgeStyle=none;html=1;labelBackgroundColor=none;startFill=0;startSize=8;endFill=1;endSize=8;fontFamily=Verdana;fontSize=12;" parent="1" source="21ea969265ad0168-18" target="2debaab0fafb2da2-10" edge="1">
          <mxGeometry relative="1" as="geometry" />
        </mxCell>
        <mxCell id="21ea969265ad0168-32" style="edgeStyle=none;html=1;labelBackgroundColor=none;startFill=0;startSize=8;endFill=1;endSize=8;fontFamily=Verdana;fontSize=12;" parent="1" source="2debaab0fafb2da2-10" target="21ea969265ad0168-14" edge="1">
          <mxGeometry relative="1" as="geometry" />
        </mxCell>
        <mxCell id="21ea969265ad0168-33" style="edgeStyle=orthogonalEdgeStyle;html=1;labelBackgroundColor=none;startFill=0;startSize=8;endFill=1;endSize=8;fontFamily=Verdana;fontSize=12;exitX=1;exitY=0.25;entryX=1;entryY=0.5;" parent="1" source="21ea969265ad0168-18" target="21ea969265ad0168-17" edge="1">
          <mxGeometry relative="1" as="geometry">
            <Array as="points">
              <mxPoint x="350" y="605" />
              <mxPoint x="350" y="357" />
            </Array>
          </mxGeometry>
        </mxCell>
        <mxCell id="21ea969265ad0168-34" value="" style="edgeStyle=orthogonalEdgeStyle;html=1;labelBackgroundColor=none;startFill=0;startSize=8;endFill=1;endSize=8;fontFamily=Verdana;fontSize=12;" parent="1" source="21ea969265ad0168-30" target="21ea969265ad0168-27" edge="1">
          <mxGeometry x="-0.1342" y="32" relative="1" as="geometry">
            <mxPoint as="offset" />
          </mxGeometry>
        </mxCell>
        <mxCell id="21ea969265ad0168-35" style="edgeStyle=orthogonalEdgeStyle;html=1;labelBackgroundColor=none;startFill=0;startSize=8;endFill=1;endSize=8;fontFamily=Verdana;fontSize=12;" parent="1" source="21ea969265ad0168-14" target="21ea969265ad0168-30" edge="1">
          <mxGeometry relative="1" as="geometry">
            <Array as="points">
              <mxPoint x="448" y="340" />
            </Array>
          </mxGeometry>
        </mxCell>
        <mxCell id="21ea969265ad0168-36" style="edgeStyle=orthogonalEdgeStyle;html=1;labelBackgroundColor=none;startFill=0;startSize=8;endFill=1;endSize=8;fontFamily=Verdana;fontSize=12;" parent="1" source="21ea969265ad0168-6" target="21ea969265ad0168-14" edge="1">
          <mxGeometry relative="1" as="geometry" />
        </mxCell>
        <mxCell id="21ea969265ad0168-37" style="edgeStyle=orthogonalEdgeStyle;html=1;labelBackgroundColor=none;startFill=0;startSize=8;endFill=1;endSize=8;fontFamily=Verdana;fontSize=12;" parent="1" source="21ea969265ad0168-26" target="21ea969265ad0168-22" edge="1">
          <mxGeometry relative="1" as="geometry" />
        </mxCell>
        <mxCell id="21ea969265ad0168-38" style="edgeStyle=orthogonalEdgeStyle;html=1;labelBackgroundColor=none;startFill=0;startSize=8;endFill=1;endSize=8;fontFamily=Verdana;fontSize=12;" parent="1" source="21ea969265ad0168-10" target="21ea969265ad0168-22" edge="1">
          <mxGeometry relative="1" as="geometry" />
        </mxCell>
        <mxCell id="21ea969265ad0168-39" style="edgeStyle=orthogonalEdgeStyle;html=1;entryX=0;entryY=0.5;labelBackgroundColor=none;startFill=0;startSize=8;endFill=1;endSize=8;fontFamily=Verdana;fontSize=12;exitX=1;exitY=0.5;" parent="1" source="21ea969265ad0168-8" target="21ea969265ad0168-12" edge="1">
          <mxGeometry relative="1" as="geometry">
            <Array as="points" />
          </mxGeometry>
        </mxCell>
        <mxCell id="21ea969265ad0168-40" style="edgeStyle=orthogonalEdgeStyle;html=1;exitX=0;exitY=0.5;entryX=1;entryY=0.5;labelBackgroundColor=none;startFill=0;startSize=8;endFill=1;endSize=8;fontFamily=Verdana;fontSize=12;" parent="1" source="21ea969265ad0168-11" target="21ea969265ad0168-7" edge="1">
          <mxGeometry relative="1" as="geometry" />
        </mxCell>
        <mxCell id="21ea969265ad0168-41" style="edgeStyle=orthogonalEdgeStyle;html=1;exitX=1;exitY=0.5;entryX=0;entryY=0.5;labelBackgroundColor=none;startFill=0;startSize=8;endFill=1;endSize=8;fontFamily=Verdana;fontSize=12;" parent="1" source="21ea969265ad0168-9" target="21ea969265ad0168-23" edge="1">
          <mxGeometry relative="1" as="geometry" />
        </mxCell>
        <mxCell id="21ea969265ad0168-42" style="edgeStyle=orthogonalEdgeStyle;html=1;exitX=1;exitY=0.5;entryX=0;entryY=0.5;labelBackgroundColor=none;startFill=0;startSize=8;endFill=1;endSize=8;fontFamily=Verdana;fontSize=12;" parent="1" source="21ea969265ad0168-16" target="21ea969265ad0168-24" edge="1">
          <mxGeometry relative="1" as="geometry">
            <Array as="points" />
          </mxGeometry>
        </mxCell>
        <mxCell id="21ea969265ad0168-43" style="edgeStyle=orthogonalEdgeStyle;html=1;labelBackgroundColor=none;startFill=0;startSize=8;endFill=1;endSize=8;fontFamily=Verdana;fontSize=12;" parent="1" source="21ea969265ad0168-24" edge="1">
          <mxGeometry relative="1" as="geometry">
            <mxPoint x="880" y="331" as="targetPoint" />
          </mxGeometry>
        </mxCell>
        <mxCell id="21ea969265ad0168-44" style="edgeStyle=orthogonalEdgeStyle;html=1;exitX=1;exitY=0.5;labelBackgroundColor=none;startFill=0;startSize=8;endFill=1;endSize=8;fontFamily=Verdana;fontSize=12;" parent="1" source="21ea969265ad0168-27" edge="1">
          <mxGeometry relative="1" as="geometry">
            <mxPoint x="880" y="609" as="targetPoint" />
          </mxGeometry>
        </mxCell>
        <mxCell id="21ea969265ad0168-45" style="edgeStyle=orthogonalEdgeStyle;html=1;labelBackgroundColor=none;startFill=0;startSize=8;endFill=1;endSize=8;fontFamily=Verdana;fontSize=12;entryX=1;entryY=0.5;" parent="1" target="21ea969265ad0168-28" edge="1">
          <mxGeometry relative="1" as="geometry">
            <mxPoint x="890" y="619" as="targetPoint" />
            <mxPoint x="880" y="635" as="sourcePoint" />
            <Array as="points">
              <mxPoint x="880" y="635" />
            </Array>
          </mxGeometry>
        </mxCell>
        <mxCell id="21ea969265ad0168-46" style="edgeStyle=orthogonalEdgeStyle;html=1;labelBackgroundColor=none;startFill=0;startSize=8;endFill=1;endSize=8;fontFamily=Verdana;fontSize=12;entryX=1;entryY=0.5;" parent="1" target="21ea969265ad0168-29" edge="1">
          <mxGeometry relative="1" as="geometry">
            <mxPoint x="730.1904761904761" y="645.0952380952381" as="targetPoint" />
            <mxPoint x="880" y="661" as="sourcePoint" />
            <Array as="points">
              <mxPoint x="800" y="661" />
              <mxPoint x="800" y="661" />
            </Array>
          </mxGeometry>
        </mxCell>
        <mxCell id="21ea969265ad0168-47" style="edgeStyle=orthogonalEdgeStyle;html=1;exitX=1;exitY=0.5;labelBackgroundColor=none;startFill=0;startSize=8;endFill=1;endSize=8;fontFamily=Verdana;fontSize=12;" parent="1" source="21ea969265ad0168-11" edge="1">
          <mxGeometry relative="1" as="geometry">
            <mxPoint x="880" y="113" as="targetPoint" />
          </mxGeometry>
        </mxCell>
        <mxCell id="21ea969265ad0168-48" style="edgeStyle=orthogonalEdgeStyle;html=1;exitX=1;exitY=0.5;labelBackgroundColor=none;startFill=0;startSize=8;endFill=1;endSize=8;fontFamily=Verdana;fontSize=12;" parent="1" source="21ea969265ad0168-12" edge="1">
          <mxGeometry relative="1" as="geometry">
            <mxPoint x="880" y="139" as="targetPoint" />
          </mxGeometry>
        </mxCell>
        <mxCell id="21ea969265ad0168-49" style="edgeStyle=orthogonalEdgeStyle;html=1;exitX=1;exitY=0.5;labelBackgroundColor=none;startFill=0;startSize=8;endFill=1;endSize=8;fontFamily=Verdana;fontSize=12;" parent="1" source="21ea969265ad0168-52" edge="1">
          <mxGeometry relative="1" as="geometry">
            <mxPoint x="880" y="165" as="targetPoint" />
            <Array as="points" />
          </mxGeometry>
        </mxCell>
        <mxCell id="21ea969265ad0168-50" style="edgeStyle=elbowEdgeStyle;html=1;labelBackgroundColor=none;startFill=0;startSize=8;endFill=1;endSize=8;fontFamily=Verdana;fontSize=12;elbow=vertical;entryX=1.011;entryY=0.152;entryPerimeter=0;" parent="1" target="21ea969265ad0168-10" edge="1">
          <mxGeometry relative="1" as="geometry">
            <mxPoint x="740" y="89" as="targetPoint" />
            <mxPoint x="880" y="94" as="sourcePoint" />
            <Array as="points">
              <mxPoint x="810" y="94" />
            </Array>
          </mxGeometry>
        </mxCell>
        <mxCell id="uq7uVIkVQKOnCqJa0BBE-1" value="afterCreate()" style="swimlane;html=1;fontStyle=0;childLayout=stackLayout;horizontal=1;startSize=26;fillColor=#d5e8d4;horizontalStack=0;resizeParent=1;resizeLast=0;collapsible=1;marginBottom=0;swimlaneFillColor=#ffffff;align=center;rounded=1;shadow=0;comic=0;labelBackgroundColor=none;strokeWidth=1;fontFamily=Verdana;fontSize=12;strokeColor=#82b366;" vertex="1" parent="1">
          <mxGeometry x="420" y="910" width="180" height="110" as="geometry" />
        </mxCell>
        <mxCell id="uq7uVIkVQKOnCqJa0BBE-2" value="setNavController()" style="text;html=1;strokeColor=none;fillColor=none;spacingLeft=4;spacingRight=4;whiteSpace=wrap;overflow=hidden;rotatable=0;points=[[0,0.5],[1,0.5]];portConstraint=eastwest;" vertex="1" parent="uq7uVIkVQKOnCqJa0BBE-1">
          <mxGeometry y="26" width="180" height="26" as="geometry" />
        </mxCell>
        <mxCell id="uq7uVIkVQKOnCqJa0BBE-3" value="register(mBroadcaseReceiver)&lt;br&gt;Player - play/pause동작" style="text;html=1;strokeColor=none;fillColor=none;spacingLeft=4;spacingRight=4;whiteSpace=wrap;overflow=hidden;rotatable=0;points=[[0,0.5],[1,0.5]];portConstraint=eastwest;" vertex="1" parent="uq7uVIkVQKOnCqJa0BBE-1">
          <mxGeometry y="52" width="180" height="48" as="geometry" />
        </mxCell>
        <mxCell id="uq7uVIkVQKOnCqJa0BBE-10" value="" style="group" vertex="1" connectable="0" parent="1">
          <mxGeometry x="150" y="910" width="190" height="130" as="geometry" />
        </mxCell>
        <mxCell id="uq7uVIkVQKOnCqJa0BBE-6" value="MainActivity" style="html=1;rounded=0;shadow=0;comic=0;labelBackgroundColor=none;strokeWidth=2;fontFamily=Verdana;fontSize=12;align=center;shape=mxgraph.ios7ui.horLines;fillColor=#d5e8d4;strokeColor=#82b366;" vertex="1" parent="uq7uVIkVQKOnCqJa0BBE-10">
          <mxGeometry width="190.00000000000003" height="50" as="geometry" />
        </mxCell>
        <mxCell id="uq7uVIkVQKOnCqJa0BBE-11" value="afterCreate()" style="whiteSpace=wrap;html=1;fontSize=12;align=left;spacingLeft=15;" vertex="1" parent="uq7uVIkVQKOnCqJa0BBE-10">
          <mxGeometry y="50" width="190" height="40" as="geometry" />
        </mxCell>
        <mxCell id="uq7uVIkVQKOnCqJa0BBE-14" style="edgeStyle=orthogonalEdgeStyle;html=1;labelBackgroundColor=none;startFill=0;startSize=8;endFill=1;endSize=8;fontFamily=Verdana;fontSize=12;exitX=1;exitY=0.25;entryX=-0.007;entryY=0.135;entryDx=0;entryDy=0;entryPerimeter=0;" edge="1" parent="1" target="uq7uVIkVQKOnCqJa0BBE-1">
          <mxGeometry relative="1" as="geometry">
            <Array as="points">
              <mxPoint x="380" y="978" />
              <mxPoint x="380" y="925" />
            </Array>
            <mxPoint x="340" y="978" as="sourcePoint" />
            <mxPoint x="340" y="730" as="targetPoint" />
          </mxGeometry>
        </mxCell>
        <mxCell id="uq7uVIkVQKOnCqJa0BBE-15" value="MainActivity&lt;br&gt;&lt;font style=&quot;font-size: 12px;&quot;&gt;- MotionLayout&lt;br&gt;&lt;span style=&quot;white-space: pre;&quot;&gt;&#x9;&lt;/span&gt;- FragmentContainer:FrameLayout&lt;br&gt;&lt;span style=&quot;white-space: pre;&quot;&gt;&#x9;&lt;/span&gt;- BottomNavigationView:FrameLayout&lt;/font&gt;" style="shape=parallelogram;html=1;strokeWidth=2;perimeter=parallelogramPerimeter;whiteSpace=wrap;rounded=1;arcSize=12;size=0.23;fontSize=16;align=left;spacingLeft=30;fillColor=#d5e8d4;strokeColor=#82b366;" vertex="1" parent="1">
          <mxGeometry x="210" y="1085" width="270" height="190" as="geometry" />
        </mxCell>
        <mxCell id="uq7uVIkVQKOnCqJa0BBE-16" value="setNavController()" style="swimlane;html=1;fontStyle=0;childLayout=stackLayout;horizontal=1;startSize=26;fillColor=#d5e8d4;horizontalStack=0;resizeParent=1;resizeLast=0;collapsible=1;marginBottom=0;swimlaneFillColor=#ffffff;align=center;rounded=1;shadow=0;comic=0;labelBackgroundColor=none;strokeWidth=1;fontFamily=Verdana;fontSize=12;strokeColor=#82b366;" vertex="1" parent="1">
          <mxGeometry x="660" y="910" width="160" height="140" as="geometry" />
        </mxCell>
        <mxCell id="uq7uVIkVQKOnCqJa0BBE-17" value="KFragmentNavigator" style="text;html=1;strokeColor=none;fillColor=none;spacingLeft=4;spacingRight=4;whiteSpace=wrap;overflow=hidden;rotatable=0;points=[[0,0.5],[1,0.5]];portConstraint=eastwest;" vertex="1" parent="uq7uVIkVQKOnCqJa0BBE-16">
          <mxGeometry y="26" width="160" height="26" as="geometry" />
        </mxCell>
        <mxCell id="uq7uVIkVQKOnCqJa0BBE-18" value="mViewModel.getSpMode()" style="text;html=1;strokeColor=none;fillColor=none;spacingLeft=4;spacingRight=4;whiteSpace=wrap;overflow=hidden;rotatable=0;points=[[0,0.5],[1,0.5]];portConstraint=eastwest;" vertex="1" parent="uq7uVIkVQKOnCqJa0BBE-16">
          <mxGeometry y="52" width="160" height="26" as="geometry" />
        </mxCell>
        <mxCell id="uq7uVIkVQKOnCqJa0BBE-19" value="&lt;br&gt;mode Selection을 통해서&lt;br&gt;현재 표출할 Fragment선택" style="text;html=1;strokeColor=none;fillColor=none;spacingLeft=4;spacingRight=4;whiteSpace=wrap;overflow=hidden;rotatable=0;points=[[0,0.5],[1,0.5]];portConstraint=eastwest;fontStyle=2;align=left;" vertex="1" parent="uq7uVIkVQKOnCqJa0BBE-16">
          <mxGeometry y="78" width="160" height="62" as="geometry" />
        </mxCell>
        <mxCell id="uq7uVIkVQKOnCqJa0BBE-20" value="" style="edgeStyle=elbowEdgeStyle;elbow=horizontal;endArrow=classic;html=1;curved=0;rounded=0;endSize=8;startSize=8;fontSize=12;entryX=-0.027;entryY=0.114;entryDx=0;entryDy=0;entryPerimeter=0;" edge="1" parent="1" target="uq7uVIkVQKOnCqJa0BBE-16">
          <mxGeometry width="50" height="50" relative="1" as="geometry">
            <mxPoint x="600" y="950" as="sourcePoint" />
            <mxPoint x="650" y="900" as="targetPoint" />
          </mxGeometry>
        </mxCell>
        <mxCell id="uq7uVIkVQKOnCqJa0BBE-28" value="" style="group" vertex="1" connectable="0" parent="1">
          <mxGeometry x="880" y="910" width="190" height="130" as="geometry" />
        </mxCell>
        <mxCell id="uq7uVIkVQKOnCqJa0BBE-29" value="KFragmentNavigator" style="html=1;rounded=0;shadow=0;comic=0;labelBackgroundColor=none;strokeWidth=2;fontFamily=Verdana;fontSize=12;align=center;shape=mxgraph.ios7ui.horLines;" vertex="1" parent="uq7uVIkVQKOnCqJa0BBE-28">
          <mxGeometry width="190.00000000000003" height="50" as="geometry" />
        </mxCell>
        <mxCell id="uq7uVIkVQKOnCqJa0BBE-30" value="navigate" style="whiteSpace=wrap;html=1;fontSize=12;align=left;spacingLeft=15;" vertex="1" parent="uq7uVIkVQKOnCqJa0BBE-28">
          <mxGeometry y="50" width="190" height="40" as="geometry" />
        </mxCell>
        <mxCell id="uq7uVIkVQKOnCqJa0BBE-31" value="BottomNavigationView" style="shape=parallelogram;html=1;strokeWidth=2;perimeter=parallelogramPerimeter;whiteSpace=wrap;rounded=1;arcSize=12;size=0.23;fontSize=12;fillColor=#d5e8d4;strokeColor=#82b366;" vertex="1" parent="1">
          <mxGeometry x="480" y="1215" width="220" height="60" as="geometry" />
        </mxCell>
        <mxCell id="uq7uVIkVQKOnCqJa0BBE-32" value="FragmentContainer" style="shape=parallelogram;html=1;strokeWidth=2;perimeter=parallelogramPerimeter;whiteSpace=wrap;rounded=1;arcSize=12;size=0.23;fontSize=12;fillColor=#d5e8d4;strokeColor=#82b366;" vertex="1" parent="1">
          <mxGeometry x="480" y="1080" width="220" height="130" as="geometry" />
        </mxCell>
        <mxCell id="uq7uVIkVQKOnCqJa0BBE-33" value="" style="group" vertex="1" connectable="0" parent="1">
          <mxGeometry x="1130" y="910" width="190" height="130" as="geometry" />
        </mxCell>
        <mxCell id="uq7uVIkVQKOnCqJa0BBE-34" value="OnairPlayFragment" style="html=1;rounded=0;shadow=0;comic=0;labelBackgroundColor=none;strokeWidth=2;fontFamily=Verdana;fontSize=12;align=center;shape=mxgraph.ios7ui.horLines;fillColor=#fff2cc;strokeColor=#d6b656;" vertex="1" parent="uq7uVIkVQKOnCqJa0BBE-33">
          <mxGeometry width="190.00000000000003" height="50" as="geometry" />
        </mxCell>
        <mxCell id="uq7uVIkVQKOnCqJa0BBE-35" value="afterViewCreated()" style="whiteSpace=wrap;html=1;fontSize=12;align=left;spacingLeft=15;" vertex="1" parent="uq7uVIkVQKOnCqJa0BBE-33">
          <mxGeometry y="50" width="190" height="40" as="geometry" />
        </mxCell>
        <mxCell id="uq7uVIkVQKOnCqJa0BBE-36" value="" style="edgeStyle=elbowEdgeStyle;elbow=horizontal;endArrow=classic;html=1;curved=0;rounded=0;endSize=8;startSize=8;fontSize=12;exitX=1;exitY=0.75;exitDx=0;exitDy=0;" edge="1" parent="1" source="uq7uVIkVQKOnCqJa0BBE-16">
          <mxGeometry width="50" height="50" relative="1" as="geometry">
            <mxPoint x="820" y="860" as="sourcePoint" />
            <mxPoint x="880" y="930" as="targetPoint" />
          </mxGeometry>
        </mxCell>
        <mxCell id="uq7uVIkVQKOnCqJa0BBE-37" value="" style="edgeStyle=elbowEdgeStyle;elbow=horizontal;endArrow=classic;html=1;curved=0;rounded=0;endSize=8;startSize=8;fontSize=12;exitX=1;exitY=0.75;exitDx=0;exitDy=0;entryX=-0.012;entryY=0.517;entryDx=0;entryDy=0;entryPerimeter=0;" edge="1" parent="1" target="uq7uVIkVQKOnCqJa0BBE-34">
          <mxGeometry width="50" height="50" relative="1" as="geometry">
            <mxPoint x="1070" y="975" as="sourcePoint" />
            <mxPoint x="1130" y="890" as="targetPoint" />
          </mxGeometry>
        </mxCell>
      </root>
    </mxGraphModel>
  </diagram>
</mxfile>
